<?xml version="1.0" encoding="UTF-8"?><svg xmlns="http://www.w3.org/2000/svg" viewBox="0 0 1000 1119.69"><defs><style>.e{fill:#1267b4;}.f{fill:#008137;}.g{fill:#9025bc;}.h{fill:#ff7800;}</style></defs><g id="a"/><g id="b"><g id="c"><rect class="g" y="119.69" width="196.62" height="1000"/><rect class="g" x="835.19" y="614.93" width="164.81" height="504.77"/><polygon class="h" points="667.79 468.4 1000 468.4 1000 614.93 566.4 614.93 667.79 468.4"/><polygon class="f" points="711.52 119.69 1000 119.69 1000 279.58 707.22 279.58 711.52 119.69"/><polygon class="f" points="803.38 279.58 592.01 614.93 516.28 494.69 500 467.25 711.52 119.69 803.38 279.58"/><polygon class="e" points="835.19 1011.69 835.19 1119.69 711.52 1119.69 196.62 279.58 196.62 119.69 288.48 119.69 835.19 1011.69"/><polygon class="e" points="595.76 1119.69 439.8 1119.69 196.62 722.93 196.62 436.5 595.76 1119.69"/></g><g id="d"><path d="M303.4,61s11.33-27.94,42.22-45.86c42.37-24.57,86.83-12.7,99.74-9.09,26.34,7.36,44.94,20.75,55.37,29.61,.01,8.45-.01,16.9,0,25.34-44.17-35.61-87.58-50.08-132.22-39.32-52.73,12.71-65.11,39.32-65.11,39.32Z"/><path d="M698.08,61s-11.33-27.94-42.22-45.86c-42.37-24.57-86.83-12.7-99.74-9.09-26.34,7.36-44.94,20.75-55.37,29.61-.01,8.45,.01,16.9,0,25.34,44.17-35.61,87.58-50.08,132.22-39.32,52.73,12.71,65.11,39.32,65.11,39.32Z"/></g></g></svg>